<svg width="1092" height="212" viewBox="0 0 1092 212" fill="none" xmlns="http://www.w3.org/2000/svg">
<path d="M244.37 86.335L244.37 195.246" stroke="#D3BBFF" stroke-width="32" stroke-linecap="round"/>
<path d="M187.09 16.7534L187.09 161.917" stroke="#D3BBFF" stroke-width="32" stroke-linecap="round"/>
<path d="M72.5271 51.1694L72.5271 177.25" stroke="#D3BBFF" stroke-width="32" stroke-linecap="round"/>
<path d="M16.4895 84.8252L16.4895 168.199" stroke="#D3BBFF" stroke-width="32" stroke-linecap="round"/>
<path d="M131.052 106.668L131.052 148.355" stroke="#D3BBFF" stroke-width="32" stroke-linecap="round"/>
<path d="M377.853 187.073C374.551 187.073 372.693 185.216 372.693 181.913V46.5073C372.693 43.2047 374.551 41.347 377.853 41.347H396.43C399.114 41.347 401.178 42.3791 402.829 44.4432L482.917 143.933V46.5073C482.917 43.2047 484.774 41.347 488.077 41.347H506.448C509.75 41.347 511.608 43.2047 511.608 46.5073V181.913C511.608 185.216 509.75 187.073 506.448 187.073H487.871C485.187 187.073 483.123 186.041 481.472 183.977L401.384 85.1062V181.913C401.384 185.216 399.527 187.073 396.224 187.073H377.853Z" fill="#E6E1E6"/>
<path d="M551.771 187.073C548.468 187.073 546.611 185.216 546.611 181.913V46.5073C546.611 43.2047 548.468 41.347 551.771 41.347H569.935C573.238 41.347 575.095 43.2047 575.095 46.5073V181.913C575.095 185.216 573.238 187.073 569.935 187.073H551.771Z" fill="#E6E1E6"/>
<path d="M779.912 187.073C776.609 187.073 774.751 185.216 774.751 181.913V56.8279C774.751 55.2046 774.887 49.9433 779.247 45.5842C783.606 41.225 788.553 41.347 790.232 41.347H854.839C896.947 41.347 911.602 59.0984 911.602 93.569V98.1101C911.602 131.549 896.947 149.507 854.839 149.507C854.839 149.507 831.177 149.507 814.363 149.507H812.299L803.443 122.26V181.913C803.443 185.216 801.585 187.073 798.282 187.073H779.912ZM814.363 149.507V122.26H852.568C873.829 122.26 882.911 117.719 882.911 97.9037V93.569C882.911 72.7215 874.242 68.7997 852.568 68.7997H803.443V122.26L812.299 149.507H814.363Z" fill="#E6E1E6"/>
<path d="M989.543 187.073C955.279 187.073 940.624 167.671 940.624 136.915V91.7113C940.624 60.7497 955.279 41.347 989.543 41.347H1042.59C1076.86 41.347 1091.51 60.7497 1091.51 91.7113V136.915C1091.51 167.671 1076.86 187.073 1042.59 187.073H989.543ZM999.864 159.621H1032.27C1046.1 159.621 1062.82 155.699 1062.82 137.948V90.6793C1062.82 72.7215 1046.72 68.7997 1032.27 68.7997H989.543C985.621 68.7997 969.315 72.7215 969.315 90.6793V137.948C969.315 155.699 986.034 159.621 999.864 159.621Z" fill="#E6E1E6"/>
<path d="M612.752 187.073C609.449 187.073 607.591 185.216 607.591 181.913V56.8279C607.591 55.2046 607.727 49.9433 612.087 45.5842C616.446 41.225 621.393 41.347 623.072 41.347H687.679C729.787 41.347 744.442 59.0984 744.442 93.569V98.1101C744.442 131.549 729.787 149.507 687.679 149.507C687.679 149.507 664.017 149.507 647.202 149.507H645.139L636.282 122.26V181.913C636.282 185.216 634.425 187.073 631.122 187.073H612.752ZM647.202 149.507V122.26H685.408C706.669 122.26 715.751 117.719 715.751 97.9037V93.569C715.751 72.7215 707.081 68.7997 685.408 68.7997H636.282V122.26L645.139 149.507H647.202Z" fill="#E6E1E6"/>
</svg>
