<svg width="1092" height="211" viewBox="0 0 1092 211" fill="none" xmlns="http://www.w3.org/2000/svg">
<path d="M244.37 85.6143L244.37 194.526" stroke="#673AB7" stroke-width="32" stroke-linecap="round"/>
<path d="M187.09 16.0327L187.09 161.196" stroke="#673AB7" stroke-width="32" stroke-linecap="round"/>
<path d="M72.5271 50.4487L72.5271 176.53" stroke="#673AB7" stroke-width="32" stroke-linecap="round"/>
<path d="M16.4895 84.1045L16.4895 167.479" stroke="#673AB7" stroke-width="32" stroke-linecap="round"/>
<path d="M131.052 105.948L131.052 147.635" stroke="#673AB7" stroke-width="32" stroke-linecap="round"/>
<path d="M377.853 186.353C374.551 186.353 372.693 184.495 372.693 181.192V45.7866C372.693 42.484 374.551 40.6263 377.853 40.6263H396.43C399.114 40.6263 401.178 41.6584 402.829 43.7225L482.917 143.213V45.7866C482.917 42.484 484.774 40.6263 488.077 40.6263H506.448C509.75 40.6263 511.608 42.484 511.608 45.7866V181.192C511.608 184.495 509.75 186.353 506.448 186.353H487.871C485.187 186.353 483.123 185.321 481.472 183.257L401.384 84.3855V181.192C401.384 184.495 399.527 186.353 396.224 186.353H377.853Z" fill="#1D1D24"/>
<path d="M551.771 186.353C548.468 186.353 546.611 184.495 546.611 181.192V45.7866C546.611 42.484 548.468 40.6263 551.771 40.6263H569.935C573.238 40.6263 575.095 42.484 575.095 45.7866V181.192C575.095 184.495 573.238 186.353 569.935 186.353H551.771Z" fill="#1D1D24"/>
<path d="M779.912 186.353C776.609 186.353 774.751 184.495 774.751 181.192V56.1072C774.751 54.4839 774.887 49.2226 779.247 44.8635C783.606 40.5043 788.553 40.6263 790.232 40.6263H854.839C896.947 40.6263 911.602 58.3777 911.602 92.8483V97.3894C911.602 130.828 896.947 148.786 854.839 148.786C854.839 148.786 831.177 148.786 814.363 148.786H812.299L803.443 121.539V181.192C803.443 184.495 801.585 186.353 798.282 186.353H779.912ZM814.363 148.786V121.539H852.568C873.829 121.539 882.911 116.998 882.911 97.183V92.8483C882.911 72.0008 874.242 68.079 852.568 68.079H803.443V121.539L812.299 148.786H814.363Z" fill="#1D1D24"/>
<path d="M989.543 186.353C955.279 186.353 940.624 166.95 940.624 136.195V90.9906C940.624 60.029 955.279 40.6263 989.543 40.6263H1042.59C1076.86 40.6263 1091.51 60.029 1091.51 90.9906V136.195C1091.51 166.95 1076.86 186.353 1042.59 186.353H989.543ZM999.864 158.9H1032.27C1046.1 158.9 1062.82 154.978 1062.82 137.227V89.9586C1062.82 72.0008 1046.72 68.079 1032.27 68.079H989.543C985.621 68.079 969.315 72.0008 969.315 89.9586V137.227C969.315 154.978 986.034 158.9 999.864 158.9Z" fill="#1D1D24"/>
<path d="M612.752 186.353C609.449 186.353 607.591 184.495 607.591 181.192V56.1072C607.591 54.4839 607.727 49.2226 612.087 44.8635C616.446 40.5043 621.393 40.6263 623.072 40.6263H687.679C729.787 40.6263 744.442 58.3777 744.442 92.8483V97.3894C744.442 130.828 729.787 148.786 687.679 148.786C687.679 148.786 664.017 148.786 647.202 148.786H645.139L636.282 121.539V181.192C636.282 184.495 634.425 186.353 631.122 186.353H612.752ZM647.202 148.786V121.539H685.408C706.669 121.539 715.751 116.998 715.751 97.183V92.8483C715.751 72.0008 707.081 68.079 685.408 68.079H636.282V121.539L645.139 148.786H647.202Z" fill="#1D1D24"/>
</svg>
