<svg width="1092" height="212" viewBox="0 0 1092 212" fill="none" xmlns="http://www.w3.org/2000/svg">
<path d="M244.37 86.335L244.37 195.246" stroke="#D74794" stroke-width="32" stroke-linecap="round"/>
<path d="M187.09 16.7534L187.09 161.917" stroke="#D74794" stroke-width="32" stroke-linecap="round"/>
<path d="M72.5271 51.1694L72.5271 177.25" stroke="#D74794" stroke-width="32" stroke-linecap="round"/>
<path d="M16.4895 84.8252L16.4895 168.199" stroke="#D74794" stroke-width="32" stroke-linecap="round"/>
<path d="M131.052 106.668L131.052 148.355" stroke="#D74794" stroke-width="32" stroke-linecap="round"/>
<path d="M377.853 187.073C374.551 187.073 372.693 185.215 372.693 181.913V46.5071C372.693 43.2045 374.551 41.3468 377.853 41.3468H396.43C399.114 41.3468 401.178 42.3788 402.829 44.4429L482.917 143.933V46.5071C482.917 43.2045 484.774 41.3468 488.077 41.3468H506.448C509.75 41.3468 511.608 43.2045 511.608 46.5071V181.913C511.608 185.215 509.75 187.073 506.448 187.073H487.871C485.187 187.073 483.123 186.041 481.472 183.977L401.384 85.1059V181.913C401.384 185.215 399.527 187.073 396.224 187.073H377.853Z" fill="#1D1D24"/>
<path d="M551.771 187.073C548.468 187.073 546.611 185.215 546.611 181.913V46.5071C546.611 43.2045 548.468 41.3468 551.771 41.3468H569.935C573.238 41.3468 575.095 43.2045 575.095 46.5071V181.913C575.095 185.215 573.238 187.073 569.935 187.073H551.771Z" fill="#1D1D24"/>
<path d="M779.912 187.073C776.609 187.073 774.751 185.215 774.751 181.913V56.8276C774.751 55.2044 774.887 49.9431 779.247 45.5839C783.606 41.2248 788.553 41.3468 790.232 41.3468H854.839C896.947 41.3468 911.602 59.0981 911.602 93.5688V98.1098C911.602 131.548 896.947 149.506 854.839 149.506C854.839 149.506 831.177 149.506 814.363 149.506H812.299L803.443 122.26V181.913C803.443 185.215 801.585 187.073 798.282 187.073H779.912ZM814.363 149.506V122.26H852.568C873.829 122.26 882.911 117.719 882.911 97.9034V93.5688C882.911 72.7213 874.242 68.7995 852.568 68.7995H803.443V122.26L812.299 149.506H814.363Z" fill="#1D1D24"/>
<path d="M989.543 187.073C955.279 187.073 940.624 167.67 940.624 136.915V91.7111C940.624 60.7494 955.279 41.3468 989.543 41.3468H1042.59C1076.86 41.3468 1091.51 60.7494 1091.51 91.7111V136.915C1091.51 167.67 1076.86 187.073 1042.59 187.073H989.543ZM999.864 159.62H1032.27C1046.1 159.62 1062.82 155.699 1062.82 137.947V90.679C1062.82 72.7213 1046.72 68.7995 1032.27 68.7995H989.543C985.621 68.7995 969.315 72.7213 969.315 90.679V137.947C969.315 155.699 986.034 159.62 999.864 159.62Z" fill="#1D1D24"/>
<path d="M612.752 187.073C609.449 187.073 607.591 185.215 607.591 181.913V56.8276C607.591 55.2044 607.727 49.9431 612.087 45.5839C616.446 41.2248 621.393 41.3468 623.072 41.3468H687.679C729.787 41.3468 744.442 59.0981 744.442 93.5688V98.1098C744.442 131.548 729.787 149.506 687.679 149.506C687.679 149.506 664.017 149.506 647.202 149.506H645.139L636.282 122.26V181.913C636.282 185.215 634.425 187.073 631.122 187.073H612.752ZM647.202 149.506V122.26H685.408C706.669 122.26 715.751 117.719 715.751 97.9034V93.5688C715.751 72.7213 707.081 68.7995 685.408 68.7995H636.282V122.26L645.139 149.506H647.202Z" fill="#1D1D24"/>
</svg>
