<svg width="720" height="414" viewBox="0 0 720 414" fill="none" xmlns="http://www.w3.org/2000/svg">
<path d="M473.94 85.7354L473.94 194.647" stroke="#D74794" stroke-width="32" stroke-linecap="round"/>
<path d="M416.659 16.1538L416.659 161.317" stroke="#D74794" stroke-width="32" stroke-linecap="round"/>
<path d="M302.098 50.5698L302.098 176.651" stroke="#D74794" stroke-width="32" stroke-linecap="round"/>
<path d="M246.06 84.2256L246.06 167.6" stroke="#D74794" stroke-width="32" stroke-linecap="round"/>
<path d="M360.622 106.069L360.622 147.756" stroke="#D74794" stroke-width="32" stroke-linecap="round"/>
<path d="M5.75171 413.188C2.44913 413.188 0.591431 411.331 0.591431 408.028V272.622C0.591431 269.32 2.44913 267.462 5.75171 267.462H24.3287C27.0121 267.462 29.0762 268.494 30.7275 270.558L110.815 370.048V272.622C110.815 269.32 112.673 267.462 115.975 267.462H134.346C137.648 267.462 139.506 269.32 139.506 272.622V408.028C139.506 411.331 137.648 413.188 134.346 413.188H115.769C113.086 413.188 111.021 412.156 109.37 410.092L29.2826 311.221V408.028C29.2826 411.331 27.4249 413.188 24.1223 413.188H5.75171Z" fill="#1D1D24"/>
<path d="M179.669 413.188C176.367 413.188 174.509 411.331 174.509 408.028V272.622C174.509 269.32 176.367 267.462 179.669 267.462H197.833C201.136 267.462 202.994 269.32 202.994 272.622V408.028C202.994 411.331 201.136 413.188 197.833 413.188H179.669Z" fill="#1D1D24"/>
<path d="M407.81 413.188C404.507 413.188 402.65 411.331 402.65 408.028V282.943C402.65 281.32 402.786 276.058 407.145 271.699C411.504 267.34 416.451 267.462 418.131 267.462H482.737C524.845 267.462 539.5 285.213 539.5 319.684V324.225C539.5 357.664 524.845 375.622 482.737 375.622C482.737 375.622 459.076 375.622 442.261 375.622H440.197L431.341 348.375V408.028C431.341 411.331 429.483 413.188 426.181 413.188H407.81ZM442.261 375.622V348.375H480.467C501.727 348.375 510.809 343.834 510.809 324.019V319.684C510.809 298.836 502.14 294.915 480.467 294.915H431.341V348.375L440.197 375.622H442.261Z" fill="#1D1D24"/>
<path d="M617.442 413.188C583.177 413.188 568.522 393.786 568.522 363.03V317.826C568.522 286.865 583.177 267.462 617.442 267.462H670.489C704.753 267.462 719.409 286.865 719.409 317.826V363.03C719.409 393.786 704.753 413.188 670.489 413.188H617.442ZM627.762 385.736H660.169C673.998 385.736 690.717 381.814 690.717 364.062V316.794C690.717 298.836 674.617 294.915 660.169 294.915H617.442C613.52 294.915 597.213 298.836 597.213 316.794V364.062C597.213 381.814 613.933 385.736 627.762 385.736Z" fill="#1D1D24"/>
<path d="M240.65 413.188C237.347 413.188 235.49 411.331 235.49 408.028V282.943C235.49 281.32 235.626 276.058 239.985 271.699C244.344 267.34 249.291 267.462 250.97 267.462H315.577C357.685 267.462 372.34 285.213 372.34 319.684V324.225C372.34 357.664 357.685 375.622 315.577 375.622C315.577 375.622 291.915 375.622 275.101 375.622H273.037L264.181 348.375V408.028C264.181 411.331 262.323 413.188 259.02 413.188H240.65ZM275.101 375.622V348.375H313.307C334.567 348.375 343.649 343.834 343.649 324.019V319.684C343.649 298.836 334.98 294.915 313.307 294.915H264.181V348.375L273.037 375.622H275.101Z" fill="#1D1D24"/>
</svg>
